<svg xmlns="http://www.w3.org/2000/svg" width="180mm" viewBox="0 0 520 300" role="img" aria-labelledby="dc-part01-title dc-part01-desc"><title id="dc-part01-title">Carcass side dimensioned part card</title><desc id="dc-part01-desc">One rectangular carcass side, quantity two, measuring thirty-eight inches long by nine and one-quarter inches wide by three-quarter inch thick.</desc><defs><pattern id="dc-part01-grid" width="8" height="8" patternUnits="userSpaceOnUse"><path d="M2 0V8M4 0V8M6 0V8M0 2H8M0 4H8M0 6H8" stroke="#e7ece9" stroke-width="0.5"/><path d="M0 0H8V8" fill="none" stroke="#c4d0c9"/></pattern><marker id="dc-part01-arrow" markerWidth="8" markerHeight="8" refX="4" refY="4" orient="auto-start-reverse"><path d="M0 0L8 4L0 8Z" fill="#0b6b78"/></marker></defs><rect width="520" height="300" fill="url(#dc-part01-grid)"/><text x="20" y="25" class="scale-note">PRINT SCALE 1:8 · one major square = 1″</text><text x="20" y="52" class="part-name">CARCASS SIDE</text><rect x="108" y="88" width="304" height="74" class="part-shape"/><path d="M108 162V185M412 162V185" class="dimension-line"/><line x1="108" y1="185" x2="412" y2="185" class="dimension-line" marker-start="url(#dc-part01-arrow)" marker-end="url(#dc-part01-arrow)"/><text x="260" y="211" text-anchor="middle" class="dimension-label">L 38″</text><path d="M108 88H82M108 162H82" class="dimension-line"/><line x1="82" y1="88" x2="82" y2="162" class="dimension-line" marker-start="url(#dc-part01-arrow)" marker-end="url(#dc-part01-arrow)"/><text x="20" y="130" class="dimension-label">W 9-1/4″</text><path d="M412 125H434" class="dimension-line"/><text x="454" y="125" text-anchor="middle" transform="rotate(90 454 125)" class="dimension-label">T 3/4″</text><line x1="430" y1="258" x2="494" y2="258" class="dimension-line" stroke-width="5"/><text x="462" y="282" text-anchor="middle" class="scale-note">8″ object · 1″ at 1:8</text></svg>